<?xml version="1.0" encoding="UTF-8"?>
<svg version="1.1" xmlns="http://www.w3.org/2000/svg" width="512" height="512">
<path d="M0 0 C1.1 -0 2.19 -0.01 3.32 -0.01 C11.14 0.04 17.73 0.85 24.88 4.25 C25.82 4.67 26.76 5.1 27.73 5.53 C38.7 10.96 47.02 20.24 55.57 28.8 C56.5 29.72 57.42 30.64 58.37 31.58 C60.9 34.1 63.43 36.63 65.96 39.15 C68.7 41.89 71.44 44.62 74.18 47.35 C80.77 53.93 87.37 60.51 93.96 67.09 C96.45 69.58 98.93 72.06 101.42 74.54 C112.4 85.5 123.37 96.46 134.35 107.43 C137.02 110.1 139.7 112.78 142.38 115.45 C143.04 116.12 143.71 116.78 144.39 117.47 C155.18 128.25 165.98 139.02 176.78 149.79 C187.9 160.87 199 171.95 210.09 183.05 C216.32 189.27 222.54 195.48 228.77 201.69 C234.08 206.97 239.38 212.26 244.67 217.56 C247.36 220.26 250.06 222.96 252.77 225.65 C255.71 228.57 258.64 231.51 261.56 234.44 C262.41 235.28 263.26 236.12 264.13 236.98 C277.92 250.92 283.15 265.48 283.2 284.73 C283.1 292.61 282.02 298.96 278.88 306.25 C278.55 307.1 278.22 307.95 277.89 308.83 C271.75 323.04 256.68 334.61 245.92 345.4 C244.23 347.09 242.55 348.79 240.86 350.48 C235.83 355.53 230.8 360.58 225.77 365.62 C224.35 367.05 222.92 368.48 221.5 369.91 C212.63 378.8 203.75 387.7 194.87 396.59 C192.83 398.64 190.78 400.69 188.74 402.74 C188.23 403.25 187.72 403.75 187.2 404.28 C178.95 412.54 170.71 420.81 162.48 429.09 C154 437.61 145.51 446.12 137.01 454.63 C132.25 459.39 127.49 464.16 122.74 468.94 C118.28 473.43 113.81 477.91 109.33 482.38 C107.69 484.02 106.06 485.66 104.43 487.31 C88.7 503.2 88.7 503.2 78.88 507.25 C77.94 507.65 77 508.06 76.04 508.48 C62.61 514.21 45.32 514.58 31.62 509.43 C30.26 508.84 30.26 508.84 28.88 508.25 C28.03 507.92 27.17 507.59 26.3 507.26 C10.78 500.56 -1.61 483.92 -13.37 472.18 C-16.09 469.46 -18.82 466.74 -21.55 464.02 C-28.11 457.48 -34.67 450.93 -41.23 444.38 C-43.7 441.91 -46.18 439.44 -48.65 436.97 C-59.57 426.06 -70.5 415.16 -81.42 404.24 C-84.08 401.58 -86.74 398.92 -89.4 396.26 C-90.06 395.6 -90.72 394.94 -91.41 394.26 C-102.14 383.53 -112.89 372.81 -123.63 362.1 C-134.69 351.08 -145.74 340.04 -156.78 329 C-162.97 322.82 -169.17 316.63 -175.37 310.45 C-180.65 305.2 -185.92 299.94 -191.18 294.67 C-193.86 291.98 -196.54 289.3 -199.24 286.62 C-202.16 283.72 -205.07 280.8 -207.98 277.88 C-208.82 277.05 -209.67 276.21 -210.54 275.35 C-217.39 268.43 -222.28 260.97 -225.94 251.94 C-226.33 250.97 -226.73 250 -227.14 249.01 C-234.1 229.41 -228.61 203.57 -226.97 183.06 C-226.66 179.17 -226.36 175.27 -226.06 171.38 C-225.56 164.86 -225.05 158.34 -224.53 151.83 C-223.94 144.33 -223.36 136.84 -222.78 129.34 C-222.16 121.28 -221.53 113.22 -220.9 105.16 C-220.73 102.87 -220.55 100.57 -220.37 98.28 C-220.09 94.67 -219.81 91.05 -219.52 87.44 C-219.37 85.51 -219.22 83.57 -219.07 81.64 C-217.38 60.74 -213.36 42.26 -197.56 27.31 C-181.78 13.95 -163.89 11.54 -143.95 10.01 C-142.58 9.9 -141.21 9.79 -139.85 9.68 C-136.17 9.39 -132.49 9.11 -128.82 8.82 C-126.5 8.64 -124.19 8.46 -121.88 8.28 C-113.76 7.65 -105.65 7.02 -97.53 6.4 C-90.04 5.82 -82.55 5.23 -75.07 4.64 C-68.58 4.13 -62.09 3.62 -55.61 3.13 C-51.76 2.83 -47.91 2.53 -44.06 2.22 C-29.38 1.05 -14.74 0.04 0 0 Z M-15.24 33.17 C-16.76 33.28 -18.29 33.4 -19.82 33.51 C-23.95 33.81 -28.08 34.12 -32.21 34.44 C-35.67 34.7 -39.13 34.96 -42.58 35.22 C-50.75 35.83 -58.92 36.45 -67.09 37.08 C-75.49 37.72 -83.89 38.35 -92.29 38.97 C-99.52 39.5 -106.75 40.05 -113.99 40.6 C-118.3 40.93 -122.61 41.26 -126.92 41.57 C-130.98 41.87 -135.04 42.18 -139.09 42.5 C-140.57 42.61 -142.05 42.72 -143.53 42.83 C-155.93 43.71 -168.12 45.01 -177.32 54.11 C-184.96 63.17 -185.51 74.58 -186.36 85.93 C-186.47 87.31 -186.58 88.68 -186.69 90.06 C-186.98 93.77 -187.26 97.49 -187.55 101.21 C-187.78 104.33 -188.03 107.45 -188.27 110.58 C-188.84 117.96 -189.41 125.35 -189.97 132.74 C-190.55 140.3 -191.14 147.87 -191.73 155.43 C-192.24 161.96 -192.74 168.5 -193.24 175.03 C-193.54 178.92 -193.84 182.8 -194.15 186.68 C-195.76 207.17 -195.76 207.17 -196.58 227.69 C-196.63 228.95 -196.63 228.95 -196.68 230.24 C-196.73 240.34 -191.41 247.52 -184.55 254.49 C-183.69 255.34 -182.82 256.2 -181.93 257.08 C-180.53 258.48 -180.53 258.48 -179.11 259.92 C-176.55 262.5 -173.98 265.06 -171.4 267.63 C-168.61 270.4 -165.84 273.19 -163.07 275.97 C-157.65 281.42 -152.21 286.85 -146.76 292.28 C-142.34 296.7 -137.92 301.12 -133.5 305.54 C-132.56 306.48 -132.56 306.48 -131.59 307.45 C-130.31 308.73 -129.04 310.01 -127.76 311.29 C-115.78 323.29 -103.78 335.27 -91.78 347.24 C-81.49 357.51 -71.21 367.79 -60.94 378.08 C-49 390.04 -37.06 402 -25.11 413.94 C-23.83 415.21 -22.55 416.49 -21.28 417.76 C-20.34 418.7 -20.34 418.7 -19.38 419.66 C-14.96 424.07 -10.55 428.49 -6.15 432.91 C-0.77 438.29 4.61 443.67 10 449.04 C12.75 451.77 15.5 454.51 18.23 457.26 C21.2 460.25 24.18 463.21 27.17 466.18 C28.46 467.48 28.46 467.48 29.77 468.81 C36.14 475.07 42.73 479.56 51.85 480.28 C63.19 480.1 70.81 473.78 78.46 466.06 C79.17 465.35 79.89 464.64 80.63 463.9 C83.03 461.53 85.41 459.14 87.79 456.76 C89.5 455.05 91.22 453.34 92.94 451.63 C97.12 447.47 101.29 443.31 105.45 439.15 C108.83 435.76 112.22 432.37 115.61 428.99 C116.59 428.02 117.57 427.04 118.55 426.06 C119.04 425.58 119.52 425.09 120.02 424.59 C129.22 415.41 138.41 406.22 147.6 397.03 C155.99 388.63 164.4 380.24 172.82 371.86 C181.47 363.24 190.11 354.61 198.75 345.97 C203.59 341.13 208.43 336.29 213.29 331.46 C217.86 326.91 222.41 322.36 226.95 317.79 C228.62 316.12 230.29 314.46 231.97 312.79 C234.26 310.52 236.53 308.23 238.81 305.94 C239.47 305.29 240.13 304.64 240.82 303.97 C246.88 297.79 250.45 291.12 250.44 282.31 C250.47 280.66 250.47 280.66 250.51 278.97 C248.82 268.99 242.67 262.32 235.68 255.42 C234.75 254.48 233.82 253.54 232.87 252.58 C230.31 250 227.73 247.43 225.15 244.87 C222.37 242.1 219.6 239.31 216.83 236.52 C211.4 231.07 205.96 225.64 200.52 220.21 C196.09 215.8 191.67 211.38 187.26 206.96 C186.63 206.33 186 205.7 185.35 205.05 C184.07 203.77 182.79 202.49 181.51 201.21 C169.53 189.21 157.53 177.23 145.53 165.25 C135.24 154.99 124.96 144.7 114.69 134.41 C102.76 122.45 90.82 110.5 78.86 98.56 C77.58 97.28 76.31 96.01 75.03 94.74 C74.41 94.11 73.78 93.48 73.13 92.84 C68.72 88.43 64.31 84.01 59.9 79.59 C54.53 74.2 49.15 68.83 43.75 63.46 C41 60.72 38.26 57.98 35.52 55.23 C32.56 52.25 29.57 49.28 26.58 46.32 C25.72 45.45 24.87 44.58 23.98 43.68 C11.96 31.86 0.86 31.93 -15.24 33.17 Z " fill="#000000" transform="translate(229.12255859375,-0.24755859375000003)"/>
<path d="M0 0 C2.54 2.22 4.96 4.51 7.35 6.89 C8 7.53 8.65 8.17 9.32 8.83 C20.04 20.14 24.33 35.6 24.35 50.89 C23.33 67.5 16.95 83.45 4.71 94.98 C-9.13 106.21 -25.31 112 -43.15 110.57 C-51.29 109.69 -58.34 107.69 -65.65 103.89 C-66.5 103.47 -67.34 103.05 -68.22 102.62 C-82.17 95.05 -92.12 82.13 -96.62 67.02 C-101.52 48.49 -98.28 31.26 -88.81 14.76 C-80.22 0.95 -65.8 -7.2 -50.4 -11.42 C-32.92 -14.66 -14.02 -11.15 0 0 Z M-59.65 30.89 C-65.13 39.08 -66.81 46.41 -65.29 56.2 C-63.28 63.81 -57.92 70.15 -51.34 74.38 C-43.4 78.18 -35.99 78.72 -27.65 75.89 C-20.42 72.99 -15.47 68.71 -11.65 61.89 C-8.45 54.05 -7.94 46.95 -10.65 38.89 C-13.92 31.47 -20 25.23 -27.46 21.96 C-39.08 18.32 -51.66 21.65 -59.65 30.89 Z " fill="#000000" transform="translate(174.6484375,88.10546875)"/>
</svg>
